<svg width="24" height="24" viewBox="0 0 24 24" fill="none" xmlns="http://www.w3.org/2000/svg">
<path d="M22.5965 16.9823C21.6908 16.0092 19.9963 14.5453 19.9963 9.75C19.9963 6.10781 17.4426 3.19219 13.9991 2.47688V1.5C13.9991 0.671719 13.3279 0 12.5 0C11.6722 0 11.001 0.671719 11.001 1.5V2.47688C7.55754 3.19219 5.00379 6.10781 5.00379 9.75C5.00379 14.5453 3.30925 16.0092 2.40363 16.9823C2.12238 17.2847 1.99769 17.6461 2.00003 18C2.00519 18.7687 2.60847 19.5 3.50472 19.5H21.4954C22.3916 19.5 22.9954 18.7687 23.0001 18C23.0024 17.6461 22.8777 17.2842 22.5965 16.9823ZM5.16551 17.25C6.16019 15.9389 7.2477 13.7658 7.25285 9.77719C7.25285 9.76781 7.25004 9.75937 7.25004 9.75C7.25004 6.85031 9.60036 4.5 12.5 4.5C15.3997 4.5 17.7501 6.85031 17.7501 9.75C17.7501 9.75937 17.7472 9.76781 17.7472 9.77719C17.7524 13.7662 18.8399 15.9394 19.8346 17.25H5.16551ZM12.5 24C14.1557 24 15.4986 22.657 15.4986 21H9.50145C9.50145 22.657 10.8444 24 12.5 24Z" fill="#F4F4F5"/>
</svg>
