<svg width="24" height="24" viewBox="0 0 24 24" fill="none" xmlns="http://www.w3.org/2000/svg">
<path d="M12.1667 24C13.8486 24 15.2129 22.657 15.2129 21H9.1205C9.1205 22.657 10.4848 24 12.1667 24ZM22.4233 16.9823C21.5033 16.0092 19.7819 14.5453 19.7819 9.75C19.7819 6.10781 17.1876 3.19219 13.6895 2.47688V1.5C13.6895 0.671719 13.0076 0 12.1667 0C11.3257 0 10.6438 0.671719 10.6438 1.5V2.47688C7.14574 3.19219 4.55146 6.10781 4.55146 9.75C4.55146 14.5453 2.83003 16.0092 1.91003 16.9823C1.62432 17.2847 1.49765 17.6461 1.50003 18C1.50527 18.7687 2.11813 19.5 3.0286 19.5H21.3048C22.2153 19.5 22.8286 18.7687 22.8333 18C22.8357 17.6461 22.7091 17.2842 22.4233 16.9823Z" fill="#F4F4F5"/>
</svg>
