<svg width="12" height="12" viewBox="0 0 12 12" fill="none" xmlns="http://www.w3.org/2000/svg">
<path d="M6 0C2.688 0 0 2.688 0 6C0 9.312 2.688 12 6 12C9.312 12 12 9.312 12 6C12 2.688 9.312 0 6 0ZM8.166 3.804C8.808 3.804 9.324 4.32 9.324 4.962C9.324 5.604 8.808 6.12 8.166 6.12C7.524 6.12 7.008 5.604 7.008 4.962C7.002 4.32 7.524 3.804 8.166 3.804ZM4.566 2.856C5.346 2.856 5.982 3.492 5.982 4.272C5.982 5.052 5.346 5.688 4.566 5.688C3.786 5.688 3.15 5.052 3.15 4.272C3.15 3.486 3.78 2.856 4.566 2.856ZM4.566 8.334V10.584C3.126 10.134 1.986 9.024 1.482 7.608C2.112 6.936 3.684 6.594 4.566 6.594C4.884 6.594 5.286 6.642 5.706 6.726C4.722 7.248 4.566 7.938 4.566 8.334ZM6 10.8C5.838 10.8 5.682 10.794 5.526 10.776V8.334C5.526 7.482 7.29 7.056 8.166 7.056C8.808 7.056 9.918 7.29 10.47 7.746C9.768 9.528 8.034 10.8 6 10.8Z" fill="#F4F4F5"/>
</svg>
