<svg width="162" height="16" viewBox="0 0 162 16" fill="none" xmlns="http://www.w3.org/2000/svg">
<path d="M8.64258 11.2695C8.64258 10.7161 8.44727 10.293 8.05664 10C7.66602 9.70052 6.96289 9.38802 5.94727 9.0625C4.93164 8.73047 4.1276 8.40495 3.53516 8.08594C1.92057 7.21354 1.11328 6.03841 1.11328 4.56055C1.11328 3.79232 1.32812 3.10872 1.75781 2.50977C2.19401 1.9043 2.81576 1.43229 3.62305 1.09375C4.43685 0.755208 5.34831 0.585938 6.35742 0.585938C7.37305 0.585938 8.27799 0.771484 9.07227 1.14258C9.86654 1.50716 10.4818 2.02474 10.918 2.69531C11.3607 3.36589 11.582 4.1276 11.582 4.98047H8.65234C8.65234 4.32943 8.44727 3.82487 8.03711 3.4668C7.62695 3.10221 7.05078 2.91992 6.30859 2.91992C5.59245 2.91992 5.03581 3.07292 4.63867 3.37891C4.24154 3.67839 4.04297 4.07552 4.04297 4.57031C4.04297 5.03255 4.27409 5.41992 4.73633 5.73242C5.20508 6.04492 5.89193 6.33789 6.79688 6.61133C8.46354 7.11263 9.67773 7.73438 10.4395 8.47656C11.2012 9.21875 11.582 10.1432 11.582 11.25C11.582 12.4805 11.1165 13.4473 10.1855 14.1504C9.25456 14.847 8.0013 15.1953 6.42578 15.1953C5.33203 15.1953 4.33594 14.9967 3.4375 14.5996C2.53906 14.196 1.85221 13.6458 1.37695 12.9492C0.908203 12.2526 0.673828 11.4453 0.673828 10.5273H3.61328C3.61328 12.0964 4.55078 12.8809 6.42578 12.8809C7.1224 12.8809 7.66602 12.7409 8.05664 12.4609C8.44727 12.1745 8.64258 11.7773 8.64258 11.2695ZM24.2773 3.1543H19.9219V15H16.9922V3.1543H12.6953V0.78125H24.2773V3.1543ZM31.2207 9.79492H28.8867V15H25.957V0.78125H31.2402C32.9199 0.78125 34.2155 1.1556 35.127 1.9043C36.0384 2.65299 36.4941 3.71094 36.4941 5.07812C36.4941 6.04818 36.2826 6.85872 35.8594 7.50977C35.4427 8.1543 34.8079 8.66862 33.9551 9.05273L37.0312 14.8633V15H33.8867L31.2207 9.79492ZM28.8867 7.42188H31.25C31.9857 7.42188 32.5553 7.23633 32.959 6.86523C33.3626 6.48763 33.5645 5.97005 33.5645 5.3125C33.5645 4.64193 33.3724 4.11458 32.9883 3.73047C32.6107 3.34635 32.028 3.1543 31.2402 3.1543H28.8867V7.42188ZM47.2852 8.83789H41.6602V12.6465H48.2617V15H38.7305V0.78125H48.2422V3.1543H41.6602V6.54297H47.2852V8.83789ZM58.0078 12.0703H52.8711L51.8945 15H48.7793L54.0723 0.78125H56.7871L62.1094 15H58.9941L58.0078 12.0703ZM53.6621 9.69727H57.2168L55.4297 4.375L53.6621 9.69727ZM67.2656 0.78125L70.918 11.0938L74.5508 0.78125H78.3984V15H75.459V11.1133L75.752 4.4043L71.9141 15H69.9023L66.0742 4.41406L66.3672 11.1133V15H63.4375V0.78125H67.2656ZM84.0723 15H81.1426V0.78125H84.0723V15ZM98.3594 15H95.4297L89.7266 5.64453V15H86.7969V0.78125H89.7266L95.4395 10.1562V0.78125H98.3594V15ZM112.168 13.2031C111.641 13.8346 110.895 14.3262 109.932 14.6777C108.968 15.0228 107.9 15.1953 106.729 15.1953C105.498 15.1953 104.417 14.9284 103.486 14.3945C102.562 13.8542 101.846 13.0729 101.338 12.0508C100.837 11.0286 100.579 9.82747 100.566 8.44727V7.48047C100.566 6.0612 100.804 4.83398 101.279 3.79883C101.761 2.75716 102.451 1.96289 103.35 1.41602C104.255 0.86263 105.312 0.585938 106.523 0.585938C108.21 0.585938 109.528 0.989583 110.479 1.79688C111.429 2.59766 111.992 3.76628 112.168 5.30273H109.316C109.186 4.48893 108.896 3.89323 108.447 3.51562C108.005 3.13802 107.393 2.94922 106.611 2.94922C105.615 2.94922 104.857 3.32357 104.336 4.07227C103.815 4.82096 103.551 5.93424 103.545 7.41211V8.32031C103.545 9.8112 103.828 10.9375 104.395 11.6992C104.961 12.4609 105.791 12.8418 106.885 12.8418C107.985 12.8418 108.77 12.6074 109.238 12.1387V9.6875H106.572V7.5293H112.168V13.2031ZM114.512 13.6133C114.512 13.1641 114.661 12.7995 114.961 12.5195C115.267 12.2396 115.648 12.0996 116.104 12.0996C116.566 12.0996 116.947 12.2396 117.246 12.5195C117.552 12.7995 117.705 13.1641 117.705 13.6133C117.705 14.056 117.555 14.4173 117.256 14.6973C116.956 14.9707 116.572 15.1074 116.104 15.1074C115.641 15.1074 115.26 14.9707 114.961 14.6973C114.661 14.4173 114.512 14.056 114.512 13.6133ZM131.211 10.4883C131.035 11.9922 130.479 13.1543 129.541 13.9746C128.61 14.7884 127.37 15.1953 125.82 15.1953C124.141 15.1953 122.793 14.5931 121.777 13.3887C120.768 12.1842 120.264 10.5729 120.264 8.55469V7.1875C120.264 5.86589 120.498 4.70378 120.967 3.70117C121.442 2.69857 122.113 1.93034 122.979 1.39648C123.844 0.85612 124.847 0.585938 125.986 0.585938C127.497 0.585938 128.708 1.00911 129.619 1.85547C130.531 2.69531 131.061 3.86068 131.211 5.35156H129.326C129.163 4.21875 128.809 3.39844 128.262 2.89062C127.721 2.38281 126.963 2.12891 125.986 2.12891C124.788 2.12891 123.848 2.57161 123.164 3.45703C122.487 4.34245 122.148 5.60221 122.148 7.23633V8.61328C122.148 10.1562 122.471 11.3835 123.115 12.2949C123.76 13.2064 124.661 13.6621 125.82 13.6621C126.862 13.6621 127.66 13.4277 128.213 12.959C128.773 12.4837 129.144 11.6602 129.326 10.4883H131.211ZM144.717 8.34961C144.717 9.74284 144.482 10.9603 144.014 12.002C143.545 13.0371 142.881 13.8281 142.021 14.375C141.162 14.9219 140.16 15.1953 139.014 15.1953C137.894 15.1953 136.901 14.9219 136.035 14.375C135.169 13.8216 134.495 13.0371 134.014 12.0215C133.538 10.9993 133.294 9.81771 133.281 8.47656V7.45117C133.281 6.08398 133.519 4.8763 133.994 3.82812C134.469 2.77995 135.14 1.97917 136.006 1.42578C136.878 0.865885 137.874 0.585938 138.994 0.585938C140.133 0.585938 141.136 0.86263 142.002 1.41602C142.874 1.96289 143.545 2.76042 144.014 3.80859C144.482 4.85026 144.717 6.06445 144.717 7.45117V8.34961ZM142.852 7.43164C142.852 5.74544 142.513 4.45312 141.836 3.55469C141.159 2.64974 140.212 2.19727 138.994 2.19727C137.809 2.19727 136.875 2.64974 136.191 3.55469C135.514 4.45312 135.166 5.70312 135.146 7.30469V8.34961C135.146 9.98372 135.488 11.2695 136.172 12.207C136.862 13.138 137.809 13.6035 139.014 13.6035C140.225 13.6035 141.162 13.1641 141.826 12.2852C142.49 11.3997 142.832 10.1335 142.852 8.48633V7.43164ZM149.951 0.78125L154.6 12.3828L159.248 0.78125H161.68V15H159.805V9.46289L159.98 3.48633L155.312 15H153.877L149.219 3.51562L149.404 9.46289V15H147.529V0.78125H149.951Z" fill="#F4F4F5"/>
</svg>
